<?xml version="1.0" encoding="UTF-8" standalone="no"?>
<!DOCTYPE svg PUBLIC "-//W3C//DTD SVG 20010904//EN"
"http://www.w3.org/TR/2001/REC-SVG-20010904/DTD/svg10.dtd">
<!-- Created with Sodipodi ("http://www.sodipodi.com/") -->
<svg
   xml:space="preserve"
   width="118.66mm"
   height="153.06mm"
   style="shape-rendering:geometricPrecision; text-rendering:geometricPrecision; image-rendering:optimizeQuality; fill-rule:evenodd; clip-rule:evenodd"
   viewBox="0 0 118.66 153.06"
   xmlns="http://www.w3.org/2000/svg"
   xmlns:xml="http://www.w3.org/XML/1998/namespace"
   xmlns:sodipodi="http://sodipodi.sourceforge.net/DTD/sodipodi-0.dtd"
   xmlns:xlink="http://www.w3.org/1999/xlink"
   id="svg657"
   sodipodi:version="0.33beta"
   sodipodi:docname="C:\Wikipedia\Itajaí - SC\Brasao_Itajai_SantaCatarina_Brasil.svg">
  <sodipodi:namedview
     id="base" />
  <defs
     id="defs658">
    <style
       type="text/css"
       id="style659">.fil1 {fill:#1F1A17}
    .fil4 {fill:#28166F}
    .fil3 {fill:#C2C1C1}
    .fil0 {fill:#DA251D}
    .fil2 {fill:#FFF500}
    .fil5 {fill:white}</style>
    <metadata
       id="CorelCorpID_0Corel-Layer"
       style="stroke:#000000;stroke-opacity:1.0000;stroke-width:0.0706;stroke-dasharray:none;fill:#ffffff;fill-opacity:1.0000;" />
  </defs>
  <rect
     id="_122954232"
     class="fil0"
     x="25.766"
     y="28.7263"
     width="68.5503"
     height="11.9465"
     style="font-size:12.000;fill:#ffffff;stroke:#000000;stroke-width:0.070600;" />
  <path
     id="_122954960"
     class="fil1"
     d="M60.037 31.3365c11.9367,0 23.2307,2.8331 33.2515,7.8555l-66.5074 0c10.0218,-5.0233 21.318,-7.8555 33.2559,-7.8555zm35.2493 7.8555l14.4835 -26.7395c-1.179,-0.6308 -2.3715,-1.2397 -3.5763,-1.8266l-1.6769 3.5602c-1.763,-0.838 -3.5458,-1.6422 -5.3469,-2.4115l0.3147 -0.7595 0.2212 -0.5342 0.2206 -0.5333 0.4423 -1.067 0.2211 -0.5341 0.0885 -0.214c-1.5042,-0.6288 -3.0256,-1.224 -4.5636,-1.7844 -0.8879,2.4538 -1.7755,4.9077 -2.6634,7.3615 0.1579,1.4216 0.3159,2.8432 0.4739,4.2648 -6.4234,-2.4454 -12.8469,-4.2287 -19.2704,-5.2125 0.8687,-0.9214 1.7375,-1.8428 2.6062,-2.7642l1.4717 -8.3395c-1.7018,-0.3055 -3.4172,-0.5707 -5.1457,-0.7933l-0.4649 3.8434c-2.8006,-0.3615 -5.6363,-0.609 -8.502,-0.7369l0.2002 -3.8658c-1.5858,-0.0714 -3.1802,-0.1079 -4.7831,-0.1079 -1.7032,0 -3.397,0.0408 -5.0808,0.1212l0.1823 3.8667c-2.8621,0.1366 -5.6939,0.3922 -8.4905,0.762l-0.4587 -3.844c-1.755,0.2311 -3.4965,0.5059 -5.2239,0.8224l1.4598 8.2717c0.8687,0.9214 1.7375,1.8428 2.6062,2.7642 -6.4235,0.9838 -12.847,2.7671 -19.2704,5.2125 0.158,-1.4216 0.3159,-2.8432 0.4739,-4.2648 -0.8729,-2.4123 -1.7455,-4.8244 -2.6184,-7.2369 -1.4809,0.5454 -2.9461,1.1231 -4.3955,1.732l0.048 0.1158 0.2212 0.5341 0.442 1.0669 0.2208 0.5335 0.2211 0.5342 0.3148 0.7593c-1.801,0.7691 -3.5839,1.5736 -5.3468,2.4113l-1.6271 -3.4539c-1.1996,0.5869 -2.3869,1.1955 -3.5608,1.8259l14.1654 26.6602 -3.9627 0 0 56.4744c0,21.5034 17.594,39.0974 39.0974,39.0974l0 0c21.5038,0 39.0976,-17.594 39.0976,-39.0974l0 -56.4744 -3.2656 0z"
     style="font-size:12.000;fill:#000000;stroke:none;stroke-width:0.070600;fill-opacity:1.0000;" />
  <path
     id="_124153816"
     class="fil2"
     d="M50.8937 117.796c2.9611,-0.1036 5.2436,-1.5517 6.8013,-3.9868l0 -14.1999c1.1033,-0.4289 2.2661,-0.5788 3.5188,-0.1961l0 14.3965c1.5576,2.4344 3.8405,3.8828 6.8013,3.9863 3.2391,-0.0986 5.4146,-1.6481 7.1978,-4.2586l-3.0127 -1.3099 5.6861 0.5328c-5.1509,8.4331 -12.3344,9.4764 -18.4168,1.7247l-0.0302 0c-6.0823,7.7516 -13.2632,6.7129 -18.4168,-1.7247l5.6861 -0.5328 -3.0127 1.3099c1.7817,2.6082 3.9469,4.1597 7.1978,4.2586zm8.5507 -2.3701l-0.0007 0.0245c-1.6076,1.9168 -3.6096,3.665 -6.0058,4.4975 2.1116,0.3923 4.0776,1.4147 5.8158,2.6485l0.2289 0.164 0.1725 -0.1642c1.7382,-1.2337 3.7043,-2.2561 5.8158,-2.6483 -2.3996,-0.8337 -4.4564,-2.6215 -6.0265,-4.522zm-0.2732 10.2705l0.2981 0.2662 0.2683 -0.2662c2.6032,-2.7105 5.3157,-3.9678 9.1268,-3.8177 4.2474,0.1672 7.4482,-2.6945 9.5924,-6.0704l2.4385 2.1079 -2.439 -4.9177c-2.3664,3.9025 -5.9335,7.6897 -10.8606,7.407 -2.9573,-0.1697 -5.8574,1.3662 -8.1414,3.0969 -2.2801,-1.7277 -5.1841,-3.2666 -8.1412,-3.0969 -4.9286,0.2828 -8.4932,-3.503 -10.8606,-7.407l-2.439 4.9177 2.4385 -2.1079c2.1411,3.3711 5.3194,6.2386 9.5924,6.0704 3.7492,-0.1476 6.5201,1.1036 9.1268,3.8177zm22.3082 -7.581c0,-3.6891 0.3507,-7.3698 0.3574,-11.0595l-3.1211 5.4868 2.7637 5.5727zm-0.0035 -11.3056l-9.4628 4.9633 6.3035 0.5906 3.1593 -5.5539zm-44.0465 11.3056c0,-3.6891 -0.3507,-7.3698 -0.3574,-11.0595l3.1211 5.4868 -2.7637 5.5727zm0.0035 -11.3056l9.4628 4.9633 -6.3035 0.5906 -3.1593 -5.5539zm22.0215 -40.3474c3.0857,0 5.6021,2.5164 5.6021,5.6021 0,2.3118 -1.4127,4.3038 -3.4187,5.1577l0 -1.8566c1.0696,-0.7104 1.7773,-1.9256 1.7773,-3.3011 0,-2.1816 -1.7791,-3.9607 -3.9607,-3.9607 -2.1816,0 -3.9607,1.7791 -3.9607,3.9607 0,1.3755 0.7077,2.5907 1.7773,3.3011l0 1.8566c-2.006,-0.8539 -3.4187,-2.8459 -3.4187,-5.1577 0,-3.0857 2.5164,-5.6021 5.6021,-5.6021zm-1.7594 7.9466l1.4225 0 0 4.7855 -1.4225 0 0 -4.7855zm2.1116 0l1.4225 0 0 4.7855 -1.4225 0 0 -4.7855zm11.9378 4.4675l-1.4596 0 0 6.2556 1.4596 0 0 -6.2556zm-6.3599 0l-1.4596 0 0 7.194 1.4596 0 0 -7.194zm-11.8602 0l1.4596 0 0 7.194 -1.4596 0 0 -7.194zm-6.3599 0l1.4596 0 0 6.2556 -1.4596 0 0 -6.2556zm28.8025 0.9383l-3.7881 0 0 4.4402 3.7881 -0.4261 0 -4.0141zm-6.1166 0l-4.0313 0 0 5.1557 4.0313 -0.4535 0 -4.7022zm-6.3598 0l-3.867 0 -0.3382 0 -3.867 0 0 5.4177 3.867 0.435 0.1691 0.019 0.1691 -0.019 3.867 -0.435 0 -5.4177zm-10.4007 0l-4.0313 0 0 4.7022 4.0313 0.4535 0 -5.1557zm-6.3598 0l-3.7881 0 0 4.0141 3.7881 0.4261 0 -4.4402zm10.965 8.1937l0 -2.0659 0.1496 0 1.0063 0.1132 0.6035 0.0679 0.6035 -0.0679 1.0063 -0.1132 0.1496 0 0 1.8568c-0.1932,-0.0523 -0.3889,-0.0991 -0.5883,-0.1389 -1.0247,-0.1274 -1.9961,0.024 -2.9305,0.348z"
     style="font-size:12.000;fill:#fff500;stroke:none;stroke-width:0.070600;fill-opacity:1.0000;" />
  <path
     id="_124381520"
     class="fil3"
     d="M21.2257 40.0608l76.4574 0 0 20.4526 -76.4574 0 0 -20.4526zm32.8425 6.211l0.2404 0.075 0.2173 0.1184 0.1891 0.156 0.1564 0.1894 0.1183 0.2173 0.0751 0.2406 0.0241 0.2393 0 1.5013 3.0873 0 0 -3.0874 -1.5013 0 -0.2393 -0.0242 -0.2404 -0.0751 -0.2173 -0.1183 -0.1894 -0.1563 -0.156 -0.1891 -0.1184 -0.2174 -0.075 -0.2404 -0.0329 -0.3223 0.0167 -0.0337 0.0163 -0.1583 0.075 -0.2404 0.1184 -0.2172 0.156 -0.1893 0.1894 -0.1562 0.2172 -0.1185 0.2405 -0.075 0.2392 -0.0245 1.5013 0 0 -1.3213 0.0246 -0.2392 0.0749 -0.2404 0.1185 -0.2172 0.156 -0.1893 0.1894 -0.1562 0.2172 -0.1184 0.2405 -0.075 0.2569 -0.0263 0.2569 0.0263 0.2406 0.075 0.2172 0.1184 0.1893 0.1562 0.1563 0.1893 0.1184 0.2172 0.075 0.2406 0.0245 0.2392 0 1.3211 1.5014 0 0.2392 0.0245 0.2405 0.075 0.2172 0.1185 0.1893 0.1562 0.1561 0.1892 0.1186 0.2172 0.075 0.2405 0.0397 0.3859 -0.0296 0.0296 -0.0102 0.0989 -0.075 0.2404 -0.1184 0.2173 -0.156 0.1891 -0.1893 0.1564 -0.2174 0.1183 -0.2406 0.0751 -0.2393 0.0241 -1.5012 0 0 3.0873 3.0872 0 0 -1.5012 0.0242 -0.2392 0.0751 -0.2407 0.1183 -0.2173 0.1564 -0.1894 0.1892 -0.156 0.2173 -0.1184 0.2404 -0.075 0.3861 -0.0395 0.0294 0.0295 0.0987 0.0101 0.2404 0.075 0.2173 0.1184 0.1894 0.156 0.156 0.1894 0.1184 0.2172 0.075 0.2405 0.0245 0.2392 0 1.5014 1.3215 0 0.2392 0.0246 0.2404 0.0749 0.2172 0.1185 0.1893 0.156 0.1562 0.1894 0.1185 0.2172 0.0749 0.2405 0.0264 0.2569 -0.0264 0.2572 -0.0749 0.2404 -0.1185 0.2176 -0.1562 0.1891 -0.1893 0.1562 -0.2173 0.1184 -0.2407 0.075 -0.2391 0.0243 -1.3211 0 0 1.5014 -0.0246 0.2395 -0.075 0.2403 -0.1184 0.2174 -0.156 0.1891 -0.1894 0.1563 -0.2173 0.1183 -0.2406 0.0751 -0.2392 0.0243 -0.0352 0 -0.2395 -0.0243 -0.2405 -0.0751 -0.2175 -0.1183 -0.1891 -0.1563 -0.1563 -0.1891 -0.1183 -0.2174 -0.0751 -0.2405 -0.0242 -0.2395 0 -1.5012 -3.0871 0 0 3.0872 1.5013 0 0.2392 0.0245 0.2406 0.075 0.2172 0.1184 0.1894 0.1562 0.156 0.1893 0.1184 0.2173 0.075 0.2404 0.0396 0.3859 -0.0295 0.0294 -0.0102 0.0989 -0.0749 0.2404 -0.1185 0.2174 -0.156 0.1892 -0.1894 0.1563 -0.2173 0.1183 -0.2406 0.0751 -0.2393 0.0241 -1.501 0 0 1.3214 -0.0245 0.2394 -0.075 0.2404 -0.1186 0.2175 -0.1562 0.1889 -0.1892 0.1564 -0.2174 0.1184 -0.2406 0.075 -0.2568 0.0261 -0.2567 -0.0261 -0.2406 -0.075 -0.2173 -0.1184 -0.1894 -0.1563 -0.156 -0.1891 -0.1185 -0.2174 -0.0749 -0.2404 -0.0245 -0.2395 0 -1.3212 -1.5012 0 -0.2392 -0.0242 -0.2406 -0.0751 -0.2174 -0.1183 -0.1892 -0.1564 -0.1561 -0.1889 -0.1185 -0.2176 -0.075 -0.2404 -0.0245 -0.2394 0 -0.0356 0.0245 -0.2392 0.075 -0.2404 0.1184 -0.2173 0.156 -0.1893 0.1894 -0.1562 0.2172 -0.1184 0.2405 -0.075 0.2392 -0.0245 1.5015 0 0 -3.0871 -3.0874 0 0 1.5012 -0.0242 0.2395 -0.0751 0.2405 -0.1183 0.2175 -0.1563 0.189 -0.1891 0.1562 -0.2174 0.1183 -0.2406 0.0751 -0.3223 0.0327 -0.0332 -0.0167 -0.1584 -0.016 -0.2405 -0.0751 -0.2173 -0.1183 -0.1893 -0.1562 -0.1562 -0.1892 -0.1185 -0.2174 -0.0749 -0.2404 -0.0246 -0.2395 0 -1.5012 -1.321 0 -0.2393 -0.0243 -0.2404 -0.075 -0.2174 -0.1184 -0.1892 -0.1564 -0.1562 -0.189 -0.1184 -0.2176 -0.075 -0.2404 -0.0264 -0.2572 0.0264 -0.2569 0.075 -0.2405 0.1184 -0.2172 0.1562 -0.1894 0.1893 -0.156 0.2172 -0.1185 0.2405 -0.0749 0.2392 -0.0245 1.3211 0 0 -1.5015 0.0246 -0.2392 0.0749 -0.2405 0.1185 -0.2172 0.1562 -0.1893 0.1892 -0.1561 0.2172 -0.1186 0.2405 -0.075 0.3859 -0.0397 0.0296 0.0296 0.0989 0.0102zm-43.9111 54.8772c0.2035,0.7042 1.0581,1.1232 1.7068,1.5152 0.5353,-0.9395 0.457,-1.632 -0.0749,-2.5999 -0.5148,0.6954 -1.059,1.0836 -1.6319,1.0847zm0.6663 12.3235c-0.1157,-1.707 0.7523,-1.7649 1.0994,-0.7233 0.6184,1.8495 1.3924,3.7637 3.009,4.5424 -1.1671,0.2031 -2.8163,0.1261 -3.9059,-0.0579 -0.2508,-1.2706 -0.2603,-2.5678 -0.2025,-3.7612zm21.7578 20.6508c-0.3533,3.1309 -1.7604,5.6374 -4.0408,7.6266 -8.371,0.3037 -9.8274,-1.8693 -9.3125,-3.345 1.6413,-2.9168 9.5713,-2.5957 13.3533,-4.2816zm-11.3555 -39.73c4.5152,-0.4384 9.0305,-5.9411 13.5457,-5.9411 4.1043,0 8.2086,5.9699 12.313,5.9699 4.1991,0 8.3981,-5.9699 12.5973,-5.9699 4.2938,0 8.5876,5.9699 12.8815,5.9699 4.0096,0 8.0192,-5.9699 12.0287,-5.9699 4.3638,0 8.7274,5.1396 13.0912,5.8803l0 1.176c0,2.8869 -0.3239,5.7013 -0.933,8.4104 -4.0528,-1.2253 -8.1054,-5.659 -12.1582,-5.659 -4.0095,0 -8.0191,5.9699 -12.0287,5.9699 -4.2939,0 -8.5877,-5.9699 -12.8815,-5.9699 -4.1992,0 -8.3982,5.9699 -12.5973,5.9699 -4.1044,0 -8.2087,-5.9699 -12.313,-5.9699 -4.1957,0 -8.3918,4.7522 -12.5875,5.7765 -0.6263,-2.745 -0.9582,-5.5993 -0.9582,-8.5279l0 -1.1152zm87.2772 6.7557c-0.2034,0.7042 -1.058,1.1232 -1.7067,1.5152 -0.5354,-0.9395 -0.4571,-1.632 0.0749,-2.5999 0.5148,0.6954 1.0589,1.0836 1.6318,1.0847zm-0.6663 12.3235c0.1158,-1.707 -0.7522,-1.7649 -1.0994,-0.7233 -0.6183,1.8495 -1.3924,3.7637 -3.0089,4.5424 1.1671,0.2031 2.8163,0.1261 3.9058,-0.0579 0.2508,-1.2706 0.2604,-2.5678 0.2025,-3.7612zm-21.7577 20.6508c0.3532,3.1309 1.7604,5.6374 4.0407,7.6266 8.3711,0.3037 9.8274,-1.8693 9.3125,-3.345 -1.6413,-2.9168 -9.5712,-2.5957 -13.3532,-4.2816z"
     style="font-size:12.000;fill:#c2c2c2;stroke:none;stroke-width:0.070600;fill-opacity:1.0000;" />
  <path
     id="_123451232"
     class="fil2"
     d="M16.3753 22.8509c0.9396,-0.4813 2.031,-0.5605 3.0557,-0.3767 0,2.3387 -0.9175,1.4301 -2.2052,1.994l-0.8505 -1.6173zm3.3996 -0.2926c1.0664,0.3028 2.0102,0.9527 2.6493,1.8616 -2.4674,1.2983 -1.3236,0.4003 -3.1903,-0.1168l0.541 -1.7448zm2.8456 2.1585c0.4796,0.5995 0.824,1.5323 1.1884,2.2167l-1.6115 0.8583c-1.2664,-2.3777 -1.8334,-1.8884 0.4231,-3.075zm1.355 2.5286l1.3019 2.4458 -1.6114 0.8586 -1.3024 -2.4454 1.6119 -0.859zm1.468 2.758l1.0536 1.9773 -1.6111 0.8579 -1.0535 -1.9773 1.611 -0.8579zm1.2197 2.2894l0.8583 1.6111 -2.3613 1.2582 -0.8504 -1.5961m-1.9126 1.056l1.6315 -0.8899c0.9112,1.7767 0.9714,1.5147 -0.7895,2.453m80.2159 -13.365c-0.8574,-0.4658 -1.8589,-0.5828 -2.8161,-0.4814 -0.5598,0.0879 -0.0598,1.7926 0.6751,1.7848 1.5804,0.0561 0.9226,0.892 2.141,-1.3034zm-3.3922 -0.3689c-1.0705,0.2779 -2.034,0.9074 -2.6904,1.8016 2.4396,1.3546 1.3132,0.4287 3.1921,-0.0451l-0.5017 -1.7565zm-2.8934 2.094c-0.493,0.5283 -0.8777,1.548 -1.2379,2.1895l1.5918 0.8942c1.3195,-2.3487 1.8753,-1.8465 -0.3539,-3.0837zm-1.4115 2.4975l-1.3566 2.4159 1.5918 0.8946 1.357 -2.4155 -1.5922 -0.895zm-1.5296 2.7244l-1.0977 1.953 1.5913 0.8939 1.0978 -1.9532 -1.5914 -0.8937zm-1.2708 2.2613l-0.8943 1.5914 2.3324 1.3109 0.886 -1.5765m1.8883 1.0988l-1.6109 -0.9265c-0.9509,1.7556 -1.0054,1.4929 0.7341,2.4701m-67.1502 -2.6513l-1.2248 0.5368 -1.5887 -2.9829c0.503,-0.2273 1.0083,-0.4499 1.5165,-0.6674l1.297 3.1135zm6.4904 -2.4462c-2.0552,0.6722 -4.0738,1.4267 -6.0518,2.2596l-1.297 -3.1133c2.0697,-0.8713 4.1818,-1.6602 6.3324,-2.3628l1.0164 3.2165zm6.6859 -1.862c-2.1107,0.488 -4.1896,1.0609 -6.2324,1.7153l-1.0164 -3.2166c2.1374,-0.6844 4.3126,-1.2833 6.5211,-1.7931l0.7277 3.2944zm6.8287 -1.262c-2.1498,0.2995 -4.2725,0.6861 -6.3641,1.1562l-0.7276 -3.2941c2.1884,-0.4915 4.4092,-0.8955 6.6586,-1.2079l0.4331 3.3458zm5.5175 -0.5702c-1.6969,0.115 -3.3792,0.2837 -5.0453,0.5056l-0.4331 -3.3458c1.8085,-0.2404 3.6353,-0.421 5.4784,-0.5408l0 3.381zm15.2878 0.4411c-1.6133,-0.2041 -3.2419,-0.3588 -4.8835,-0.4632l0 -3.3801c1.7977,0.1096 3.5802,0.2771 5.3452,0.5011l-0.4617 3.3422zm6.8622 1.1799c-2.1003,-0.4584 -4.2313,-0.8327 -6.3896,-1.119l0.4617 -3.3422c2.2577,0.3001 4.487,0.6923 6.6838,1.173l-0.7559 3.2882zm6.7345 1.7882c-2.0552,-0.6451 -4.1464,-1.208 -6.2692,-1.6849l0.7558 -3.288c2.2206,0.4995 4.4078,1.0892 6.5573,1.765l-1.0439 3.2079zm6.5529 2.3823c-1.9935,-0.8268 -4.0276,-1.5742 -6.0986,-2.2381l1.0438 -3.2077c2.1662,0.695 4.2935,1.4776 6.3783,2.3435l-1.3235 3.1023zm1.5298 0.6535l-1.0903 -0.4696 1.3236 -3.1021c0.4777,0.2017 0.9529,0.4079 1.426,0.6183l-1.6593 2.9534zm-65.453 -7.4179c-0.6342,0.2711 -1.2645,0.5498 -1.8909,0.8355 -0.5023,-0.9431 -0.9498,-1.9826 -1.5677,-2.8561 0.7313,-0.336 1.4674,-0.6627 2.2089,-0.9794l1.2497 3zm7.1316 -2.6818c-2.2732,0.7416 -4.5056,1.5749 -6.6928,2.4956l-1.2498 -2.9999c2.2755,-0.9577 4.5981,-1.8241 6.9632,-2.5949l0.9794 3.0992zm7.3454 -2.0397c-2.3343,0.5377 -4.6331,1.1701 -6.892,1.8931l-0.9793 -3.0994c2.3499,-0.7519 4.7415,-1.4095 7.1702,-1.968l0.7011 3.1743zm7.5018 -1.3796c-2.3773,0.329 -4.7244,0.7551 -7.0369,1.2742l-0.7011 -3.1742c2.4058,-0.5398 4.8475,-0.9825 7.3207,-1.3239l0.4173 3.2239zm0.4722 -0.0645l-0.4172 -3.2237c2.1455,-0.2845 4.3146,-0.4924 6.5045,-0.6214 -0.152,1.0624 -0.0525,2.1918 -0.0525,3.26 -2.0311,0.1254 -4.0435,0.3208 -6.0348,0.5851zm22.8222 -3.2762l-0.4448 3.2202c-1.9599,-0.25 -3.9402,-0.4336 -5.9382,-0.5493 0,-1.0678 0.1005,-2.198 -0.0554,-3.2589 2.167,0.1195 4.3142,0.3163 6.4384,0.588zm7.0895 4.5234c-2.3208,-0.5091 -4.6761,-0.9244 -7.0616,-1.242l0.4448 -3.2202c2.4813,0.3309 4.9311,0.7636 7.345,1.2941l-0.7282 3.1681zm7.3926 1.9716c-2.2707,-0.7154 -4.5813,-1.3395 -6.9274,-1.8678l0.7282 -3.1679c2.4402,0.5499 4.8435,1.1998 7.205,1.9448l-1.0058 3.0909zm7.1918 2.6235c-2.2021,-0.9161 -4.4494,-1.7439 -6.7378,-2.4788l1.0059 -3.0908c2.3801,0.7648 4.7172,1.6267 7.0073,2.5805l-1.2754 2.9891zm2.2961 0.995c-0.6152,-0.2772 -1.2339,-0.5476 -1.8566,-0.8107l1.2754 -2.9889c0.7424,0.3138 1.4794,0.6377 2.2116,0.9708 -0.6314,0.8681 -1.1052,1.8938 -1.6304,2.8288zm-72.2201 -7.8175c-2.4066,1.0271 -4.7626,2.1513 -7.0628,3.3678l-1.4781 -2.8159c2.3832,-1.2601 4.8241,-2.4246 7.3177,-3.4882l1.2232 2.9363zm24.4341 -6.6986l-0.4085 -3.1554c2.6651,-0.3528 5.3638,-0.5968 8.0911,-0.7279l0.1275 3.1791c-2.6327,0.1274 -5.2375,0.3634 -7.8101,0.7042zm8.1588 -3.9047c2.7076,-0.1171 5.4203,-0.1226 8.1282,-0.0152l-0.1546 3.1777c-2.6141,-0.1028 -5.2326,-0.0967 -7.8462,0.0165l-0.1274 -3.179zm16.272 3.857c-2.5769,-0.3309 -5.1856,-0.5571 -7.8221,-0.674l0.1546 -3.1778c2.7311,0.1214 5.4337,0.3565 8.103,0.6999l-0.4355 3.1519zm31.6494 10.0002c-2.3165,-1.2174 -4.6891,-2.3416 -7.1129,-3.367l1.2482 -2.9256c2.5105,1.0626 4.9678,2.2277 7.3669,3.4894l-1.5022 2.8032zm-43.6801 -18.4713c1.3754,0 2.7443,0.0276 4.1067,0.0822l0.1657 -3.408c-2.9424,-0.1186 -5.8893,-0.1141 -8.8314,0.0123l0.1366 3.4093c1.4665,-0.0632 2.9407,-0.0958 4.4224,-0.0958zm-32.4089 34.4066c-0.9035,0.4353 -1.6263,0.888 -2.5094,1.3581l-1.5524 -2.9217c0.931,-0.4957 1.7025,-0.9729 2.6552,-1.4315l1.4066 2.9951zm6.0583 -2.5975c-1.9143,0.7223 -3.7916,1.521 -5.6284,2.3918l-1.4065 -2.9949c1.9251,-0.9125 3.8924,-1.7491 5.8988,-2.5054l1.1361 3.1085zm6.2682 -2.0529c-1.9742,0.5508 -3.916,1.1806 -5.8218,1.8858l-1.1361 -3.1084c1.9972,-0.7388 4.0323,-1.3984 6.1014,-1.9748l0.8565 3.1974zm6.4297 -1.4894c-2.0193,0.3742 -4.0104,0.8297 -5.9702,1.363l-0.8565 -3.1973c2.0536,-0.5586 4.1406,-1.0353 6.2567,-1.4265l0.57 3.2608zm6.5405 -0.9144c-2.0487,0.1943 -4.0736,0.4719 -6.0716,0.8289l-0.5701 -3.2607c2.0938,-0.3739 4.2157,-0.6642 6.3626,-0.8669l0.2791 3.2987zm6.5998 -0.334c-2.0623,0.0139 -4.105,0.1119 -6.1253,0.2906l-0.279 -3.2984c2.1169,-0.1868 4.2575,-0.2887 6.4185,-0.3023l-0.0142 3.3101zm6.6084 0.2447c-2.0398,-0.1654 -4.0853,-0.2465 -6.1318,-0.2465l0.0141 -3.3101c2.1442,0 4.2879,0.0861 6.425,0.2606l-0.3073 3.296zm6.5663 0.8265c-2.0049,-0.3435 -4.0364,-0.6067 -6.0914,-0.7865l0.3073 -3.2958c2.153,0.189 4.2816,0.4654 6.382,0.8265l-0.5979 3.2558zm6.4715 1.4087c-1.9706,-0.5219 -3.9723,-0.9654 -6.002,-1.3266l0.5978 -3.2557c2.1266,0.379 4.2237,0.8445 6.288,1.3924l-0.8838 3.1899zm6.325 1.9808c-1.9201,-0.6966 -3.8761,-1.3169 -5.8646,-1.8573l0.8836 -3.1896c2.0833,0.5666 4.1324,1.2172 6.1437,1.9482l-1.1627 3.0987zm6.128 2.5371c-1.854,-0.8659 -3.7489,-1.6581 -5.6807,-2.373l1.1626 -3.0985c2.0236,0.7495 4.0083,1.5804 5.9502,2.4886l-1.4321 2.9829zm4.4771 -1.4334l-1.5758 2.9094c-0.8907,-0.4677 -1.5593,-0.8404 -2.4703,-1.273l1.4321 -2.9827c0.9596,0.4559 1.6761,0.853 2.614,1.3463zm-65.066 -8.0284c-1.6714,0.6292 -3.3172,1.3113 -4.9357,2.0436l-1.5344 -2.8809c1.7537,-0.7988 3.5382,-1.5407 5.3518,-2.2229l1.1183 3.0602zm6.9207 -2.2608c-2.1956,0.6107 -4.3552,1.31 -6.4743,2.0938l-1.1183 -3.0601c2.2091,-0.8168 4.4603,-1.5455 6.7494,-2.1813l0.8432 3.1476zm7.0984 -1.6371c-2.2455,0.414 -4.4597,0.919 -6.6388,1.5113l-0.8431 -3.1476c2.2716,-0.6171 4.5797,-1.1431 6.9207,-1.5739l0.5612 3.2102zm7.2195 -1.0025c-2.278,0.2138 -4.5292,0.5212 -6.7506,0.9174l-0.5612 -3.21c2.3156,-0.4126 4.6625,-0.7326 7.0372,-0.9546l0.2746 3.2472zm2.392 -0.1888c-0.6411,0.0414 -1.2802,0.0899 -1.9173,0.146l-0.2747 -3.2472c0.7283,-0.064 1.4588,-0.1187 2.192,-0.1642l0 3.2654zm12.1845 0.1056c-0.5916,-0.0486 -1.1852,-0.0909 -1.7802,-0.127l0 -3.2643c0.6963,0.0406 1.3908,0.0892 2.0826,0.1464l-0.3024 3.2449zm7.2446 0.9202c-2.2279,-0.3844 -4.4856,-0.6787 -6.7697,-0.8798l0.3024 -3.2447c2.3807,0.21 4.7341,0.5177 7.0559,0.9193l-0.5886 3.2052zm7.1389 1.5624c-2.1893,-0.5825 -4.4136,-1.0774 -6.6694,-1.4801l0.5886 -3.2051c2.3509,0.4203 4.6693,0.9365 6.9509,1.5447l-0.8701 3.1405zm6.9757 2.1937c-2.1328,-0.7767 -4.306,-1.4679 -6.5155,-2.0696l0.8699 -3.1402c2.3028,0.6276 4.5676,1.3488 6.7902,2.1594l-1.1446 3.0504zm5.3234 2.1524c-1.5997,-0.7125 -3.2255,-1.3759 -4.8762,-1.9879l1.1445 -3.0504c1.8071,0.6705 3.5858,1.4003 5.3339,2.1865l-1.6022 2.8518zm-75.2431 -8.2503c1.2121,-0.6594 1.2342,-0.9996 1.8292,0.2675 -0.586,-0.1955 -1.2059,-0.2875 -1.8292,-0.2675zm10.1001 -0.833c-2.0576,0.773 -4.0797,1.619 -6.0638,2.5345 -1.0089,-1.1092 -1.5566,-1.1699 -2.2341,-2.6128 2.3361,-1.1065 4.7244,-2.1195 7.1604,-3.034l1.1375 3.1123zm7.5717 -2.4674c-2.4168,0.6702 -4.7933,1.4387 -7.1252,2.3007l-1.1374 -3.1124c2.4235,-0.8955 4.8933,-1.6936 7.4052,-2.3893l0.8574 3.201zm7.7654 -1.7853c-2.4713,0.4535 -4.9081,1.0083 -7.3057,1.6594l-0.8574 -3.2011c2.4916,-0.6764 5.0241,-1.2521 7.5924,-1.7227l0.5707 3.2644zm0.469 -0.0848l-0.5707 -3.2641c2.54,-0.4519 5.1144,-0.8014 7.7195,-1.0431l0.2794 3.3024c-2.5068,0.2333 -4.9841,0.5696 -7.4282,1.0048zm10.6502 -1.2462c-0.9195,0.0526 -1.8352,0.1187 -2.7473,0.1987l-0.2794 -3.3024c1.9926,-0.1746 4.0028,-0.2859 6.0286,-0.3328 -1.4582,0.6196 -2.581,1.8872 -3.0019,3.4365zm12.7194 0.1638c-0.8903,-0.0741 -1.7843,-0.1349 -2.6816,-0.1829 -0.4267,-1.5474 -1.5548,-2.8117 -3.0167,-3.4256 2.0178,0.0392 4.0208,0.1426 6.006,0.3085l-0.3077 3.3zm7.9215 1.0135c-2.4503,-0.4251 -4.934,-0.7504 -7.4466,-0.9727l0.3077 -3.2999c2.6108,0.2316 5.1913,0.5705 7.7374,1.0132l-0.5985 3.2594zm7.8047 1.7156c-2.4077,-0.6431 -4.8542,-1.1891 -7.3353,-1.6331l0.5986 -3.2592c2.578,0.4619 5.12,1.0295 7.6215,1.6987l-0.8848 3.1936zm7.6249 2.4063c-2.3449,-0.8566 -4.7349,-1.6187 -7.1649,-2.2817l0.8847 -3.1934c2.5249,0.6893 5.0079,1.4815 7.4442,2.3726l-1.164 3.1025zm6.5406 2.6855c-1.9939,-0.9116 -4.026,-1.7529 -6.0935,-2.5207l1.1641 -3.1023c2.4519,0.911 4.856,1.9217 7.2074,3.0273 -0.6972,1.4522 -1.2433,1.4896 -2.278,2.5957zm2.235 -1.4048c0.6429,-1.3392 0.7265,-0.8826 2.014,-0.2271 -0.6831,-0.0567 -1.3678,0.0227 -2.014,0.2271zm-81.905 -4.8607c-1.2481,0.5984 -2.14,1.0515 -3.3584,1.7006l-1.5721 -2.9588c1.267,-0.6751 2.2082,-1.1525 3.5063,-1.7746l1.4242 3.0328zm7.9513 -3.39c-2.5589,0.9594 -5.0674,2.023 -7.521,3.1849l-1.4242 -3.0326c2.5428,-1.2041 5.1426,-2.3063 7.7947,-3.3001l1.1505 3.1478zm25.2344 -5.7857c-2.736,0.2527 -5.4398,0.6189 -8.1072,1.0931l-0.5772 -3.3018c2.7642,-0.4912 5.5664,-0.8702 8.4018,-1.1313l0.2826 3.34zm8.6509 -0.4157c-2.7532,0.0114 -5.4799,0.1373 -8.1762,0.3731l-0.2825 -3.3401c2.794,-0.2441 5.6198,-0.3738 8.473,-0.3849l-0.0143 3.3519zm8.6588 0.3436c-2.6983,-0.2267 -5.4273,-0.3433 -8.1822,-0.345l0.0143 -3.3519c2.8549,0.0022 5.6829,0.1236 8.479,0.3593l-0.3111 3.3376zm8.5996 1.1078c-2.6732,-0.4661 -5.3831,-0.8229 -8.1247,-1.0666l0.3111 -3.3375c2.8412,0.2529 5.6491,0.6233 8.4191,1.1071l-0.6055 3.297zm24.7616 7.8346c-2.4685,-1.1621 -4.9924,-2.224 -7.5668,-3.1812l1.1773 -3.1378c2.6673,0.9923 5.2823,2.0935 7.8397,3.2984l-1.4502 3.0206zm5.4998 -0.963l-1.5958 2.9461c-1.2212,-0.6468 -2.2225,-1.1829 -3.4732,-1.7792l1.4501 -3.0204c1.3,0.6199 2.3498,1.1806 3.6189,1.8535zm-81.9386 2.2067c-0.5232,0.2092 -1.0445,0.423 -1.5631,0.6412l-1.2233 -2.9362c1.0518,-0.4425 2.1132,-0.8667 3.1831,-1.2729l-0.3967 3.5679zm21.9598 -5.807l-1.5026 0.2191 -2.6295 -2.7889c1.2336,-0.2187 2.4748,-0.4142 3.7236,-0.5858l0.4085 3.1556zm-1.427 -11.0243c-1.402,0.1918 -2.7951,0.4111 -4.1794,0.6577l0.5929 3.3601c1.3329,-0.2375 2.6745,-0.449 4.0245,-0.6339l-0.438 -3.3839zm27.8571 3.3425c1.3255,0.1775 2.6428,0.3803 3.9519,0.6085l0.5929 -3.3597c-1.3508,-0.2356 -2.7102,-0.4454 -4.0779,-0.6287l-0.4669 3.3799zm0.4781 7.8491l-1.5325 -0.2178 0.4355 -3.1518c1.2518,0.1674 2.4964,0.359 3.733,0.5737l-2.636 2.7959zm22.0919 6.1695c-1.9362,-0.8074 -1.7323,-0.8953 -1.9143,-2.6043 -0.2751,-2.5842 0.0584,-1.6173 3.1627,-0.3215l-1.2484 2.9258zm-72.8805 -11.7022c-3.9718,1.4854 -3.6713,0.7509 -2.3516,3.9547 0.4449,1.0803 2.5355,-0.3808 3.5124,-0.7464l-1.1608 -3.2083zm-9.8069 4.2492c-0.8401,0.416 -1.6741,0.843 -2.5015,1.2804l1.5853 3.02c0.784,-0.4146 1.5741,-0.8195 2.3701,-1.2141l-1.4539 -3.0863zm81.8096 -1.168c1.1607,0.4298 2.3115,0.8801 3.4521,1.3505l1.3053 -3.1515c-1.1884,-0.4902 -2.3873,-0.9594 -3.5966,-1.407l-1.1608 3.208zm9.6912 4.1731c0.7978,0.394 1.5901,0.7981 2.3762,1.212l1.6111 -3.0064c-0.838,-0.4415 -1.6827,-0.8718 -2.5338,-1.2913l-1.4535 3.0857zm-44.9109 -2.2208c1.2664,0.034 1.8373,0.5861 2.8748,1.1048 -1.665,1.6485 -2.8883,1.4801 -2.8748,-1.1048zm3.1388 1.3407c0.8031,0.7692 1.3227,1.7842 1.4631,2.8883 -2.1619,-0.011 -1.5089,0.2302 -2.2228,-0.9471 -0.6516,-1.0747 -0.6098,-0.5849 0.7597,-1.9412zm1.4964 3.2423c0.1433,0.7523 0.0071,1.7415 0.0071,2.5152l-1.8259 0.0004c0,-2.6939 -0.7301,-2.5286 1.8188,-2.5156zm0.0069 5.6397l-1.826 0.0002 0.0002 -2.7706 1.8261 -0.0005 -0.0003 2.7709zm-0.0001 0.3541l0.0003 2.2401 -1.8256 -0.0003 0 -2.2404 1.8253 0.0006zm0.0001 2.5936l-0.0001 1.8255 -2.6753 0.0002c0.0007,-0.1481 0.0184,-1.8259 -0.002,-1.8259m-0.3135 0.0003c-0.0587,0 -0.038,1.655 -0.0389,1.8257l-3.5957 -0.0001c0.0007,-0.1534 0.0232,-1.8255 -0.006,-1.8255m-0.3135 -0.0004c-0.0503,0 -0.0331,1.66 -0.0338,1.8259l-2.7043 -0.0001 0.0002 -1.8258 2.7127 0m-2.713 -0.3538l0.0003 -2.2402 1.8251 0.0002 0 2.2407 -1.8254 -0.0007zm-0.0002 -2.5936l0.0001 -2.7707 1.8255 0.0002 0.0002 2.7704 -1.8258 0.0001zm0.0004 -3.1242l0.0061 -2.5125c2.5497,0.0133 1.8189,-0.1959 1.8195,2.5124l-1.8256 0.0001zm0.0395 -2.8661c0.1417,-1.1206 0.6703,-2.1347 1.4855,-2.9127 1.8116,1.8296 0.6809,1.0525 0.3608,2.9221l-1.8463 -0.0094zm1.7514 -3.1468c0.8395,-0.6622 1.8212,-1.0541 2.896,-1.087 -0.0127,2.4947 -1.2255,2.7744 -2.896,1.087zm6.0666 12.0848l-0.8411 -0.0003m-0.3535 0.0003l-3.5963 0.0001"
     style="font-size:12.000;fill:#fff500;stroke:none;stroke-width:0.070600;fill-opacity:1.0000;" />
  <path
     id="_123432520"
     class="fil4"
     d="M96.5495 104.764c-9.5884,38.518 -64.458,38.5907 -74.1626,0.1147 4.4902,-1.1086 9.5739,-7.3824 14.342,-5.2727 6.7498,2.9845 8.6131,8.3256 16.3648,2.908 1.3386,-0.9359 2.7029,-2.0489 4.1669,-2.7194l0 13.9039c-3.3931,5.2543 -10.068,4.4901 -12.9096,0.0285l3.9387 -1.7124 -11.6448 -6.1079c-0.0761,4.6428 0.4186,8.8288 0.3425,13.4715l3.3679 -2.9112c2.1256,3.452 5.8453,6.1781 10.1035,5.8224 3.9923,-0.0635 6.1802,1.432 8.2729,3.5782l0.7225 0.7668 0.7226 -0.7668c2.0926,-2.1462 4.2809,-3.6417 8.2732,-3.5782 4.2582,0.3557 7.9779,-2.3704 10.1035,-5.8224l3.3679 2.9112c-0.0761,-4.6427 0.4186,-8.8287 0.3425,-13.4715l-11.6448 6.1079 3.9387 1.7124c-2.8416,4.4615 -9.5164,5.2258 -12.9096,-0.0283l0 -14.1319c0.0368,0.0145 0.0736,0.0293 0.1105,0.0449 7.0907,2.9962 9.0969,8.4298 16.9596,2.6112 0.961,-0.7112 1.9111,-1.4506 2.9375,-2.0667 5.3125,-3.1906 10.0043,3.1055 14.8937,4.6078zm-39.2889 -30.7887l2.1116 0 0.1797 0 2.1116 0 0 0.8339 0.0756 -0.0626 0.0802 -0.0706 0.0783 -0.0731 0.0758 -0.0752 0.0735 -0.0775 0.0713 -0.0797 0.0689 -0.082 0.0665 -0.0839 0.0639 -0.086 0.0613 -0.0878 0.0587 -0.0897 0.0559 -0.0917 0.0534 -0.0935 0.0503 -0.0948 0.0476 -0.0968 0.0446 -0.0985 0.0419 -0.0999 0.0386 -0.1014 0.0357 -0.1028 0.0324 -0.104 0.0294 -0.1056 0.0259 -0.1069 0.0229 -0.108 0.0193 -0.1092 0.0162 -0.1107 0.0125 -0.1113 0.0092 -0.1127 0.0054 -0.1134 0.0019 -0.1125 -0.0047 -0.1832 -0.0138 -0.1787 -0.0225 -0.1759 -0.031 -0.173 -0.0395 -0.1702 -0.0476 -0.1671 -0.0555 -0.1635 -0.0632 -0.1599 -0.0707 -0.1558 -0.078 -0.152 -0.0852 -0.1478 -0.0919 -0.1433 -0.0986 -0.1382 -0.1049 -0.1335 -0.1112 -0.1283 -0.1169 -0.1227 -0.1227 -0.1169 -0.1283 -0.1112 -0.1335 -0.1049 -0.1382 -0.0986 -0.1433 -0.0919 -0.1478 -0.0852 -0.152 -0.078 -0.1558 -0.0707 -0.1599 -0.0632 -0.1635 -0.0555 -0.167 -0.0476 -0.1702 -0.0395 -0.173 -0.0311 -0.1759 -0.0225 -0.1787 -0.0137 -0.1812 -0.0046 -0.1811 0.0046 -0.1787 0.0137 -0.1759 0.0225 -0.173 0.0311 -0.1702 0.0395 -0.1671 0.0476 -0.1635 0.0555 -0.1599 0.0632 -0.1558 0.0707 -0.152 0.078 -0.1478 0.0852 -0.1433 0.0919 -0.1382 0.0986 -0.1335 0.1049 -0.1283 0.1112 -0.1227 0.1169 -0.1169 0.1227 -0.1112 0.1283 -0.1049 0.1335 -0.0986 0.1382 -0.0919 0.1433 -0.0852 0.1478 -0.078 0.152 -0.0707 0.1558 -0.0632 0.1599 -0.0555 0.1635 -0.0476 0.1671 -0.0395 0.1702 -0.031 0.173 -0.0225 0.1759 -0.0138 0.1787 -0.0047 0.1832 0.0019 0.1125 0.0054 0.1134 0.0092 0.1127 0.0125 0.1113 0.0162 0.1107 0.0193 0.1092 0.0229 0.108 0.0259 0.1069 0.0294 0.1056 0.0324 0.104 0.0357 0.1028 0.0386 0.1014 0.0419 0.0999 0.0446 0.0985 0.0476 0.0968 0.0503 0.0948 0.0534 0.0935 0.0559 0.0917 0.0587 0.0897 0.0613 0.0878 0.0639 0.086 0.0665 0.0839 0.0689 0.082 0.0713 0.0797 0.0735 0.0775 0.0758 0.0752 0.0783 0.0731 0.0802 0.0706 0.0826 0.0684 0.0083 0.0064 0 -0.8461zm0.142 25.7557c0.0102,-0.0044 0.0205,-0.0089 0.0306,-0.0132 -0.0101,0.0043 -0.0204,0.0088 -0.0306,0.0132zm0.1365 -0.058c0.01,-0.0041 0.0201,-0.0083 0.0302,-0.0124 -0.01,0.0041 -0.0202,0.0083 -0.0302,0.0124zm0.1224 -0.0495c0.0154,-0.0061 0.0308,-0.0121 0.0463,-0.0181 -0.0154,0.006 -0.0309,0.012 -0.0463,0.0181zm0.1479 -0.0565c0.0075,-0.0027 0.0151,-0.0055 0.0227,-0.0083 -0.0076,0.0028 -0.0152,0.0056 -0.0227,0.0083zm0.1218 -0.0438c0.0163,-0.0056 0.0325,-0.0112 0.0488,-0.0167 -0.0163,0.0055 -0.0325,0.0111 -0.0488,0.0167zm0.1468 -0.0494c0.0103,-0.0033 0.0206,-0.0066 0.0309,-0.0099 -0.0103,0.0033 -0.0207,0.0066 -0.0309,0.0099zm0.1267 -0.0395c0.0159,-0.0048 0.0319,-0.0096 0.0478,-0.0143 -0.0159,0.0047 -0.0318,0.0095 -0.0478,0.0143zm0.1567 -0.045c0.0082,-0.0023 0.0164,-0.0044 0.0246,-0.0066 -0.0082,0.0022 -0.0164,0.0043 -0.0246,0.0066zm0.1289 -0.0337c0.0119,-0.0029 0.0239,-0.0059 0.0359,-0.0088 -0.012,0.0029 -0.024,0.0059 -0.0359,0.0088zm0.1452 -0.0342c0.0105,-0.0023 0.0209,-0.0045 0.0312,-0.0068 -0.0104,0.0023 -0.0207,0.0045 -0.0312,0.0068zm0.1349 -0.0283c0.0109,-0.0022 0.0218,-0.0044 0.0328,-0.0064 -0.0109,0.0021 -0.0219,0.0042 -0.0328,0.0064zm0.1456 -0.0266c0.0082,-0.0014 0.0164,-0.0029 0.0247,-0.0042 -0.0083,0.0013 -0.0165,0.0028 -0.0247,0.0042zm0.1372 -0.0215c0.0105,-0.0014 0.021,-0.0029 0.0315,-0.0044 -0.0105,0.0015 -0.021,0.003 -0.0315,0.0044zm0.1327 -0.0171c0.0146,-0.0017 0.0293,-0.0034 0.0439,-0.005 -0.0146,0.0016 -0.0293,0.0033 -0.0439,0.005zm0.1425 -0.0147c0.0137,-0.0012 0.0272,-0.0024 0.0409,-0.0035m0.108 -0.0072c0.0163,-0.001 0.0326,-0.0019 0.049,-0.0026 -0.0164,0.0007 -0.0327,0.0016 -0.049,0.0026zm0.1455 -0.0065c0.0168,-0.0005 0.0339,-0.0007 0.0507,-0.0011 -0.0169,0.0004 -0.0339,0.0006 -0.0507,0.0011zm0.1431 -0.0019c0.0202,0 0.0406,0.0002 0.0608,0.0005m0.0925 0.0018c0.0184,0.0006 0.037,0.0015 0.0555,0.0023m0.0859 0.0044c0.0203,0.0012 0.0406,0.0027 0.061,0.0042 -0.0204,-0.0015 -0.0408,-0.003 -0.061,-0.0042zm0.1428 0.0108c0.0287,0.0026 0.0575,0.0057 0.0862,0.0088 -0.0287,-0.0031 -0.0575,-0.0062 -0.0862,-0.0088zm0.1456 0.0155c0.0253,0.003 0.0507,0.0064 0.0761,0.0099 -0.0254,-0.0035 -0.0508,-0.0069 -0.0761,-0.0099zm0.1497 0.0205c0.0261,0.004 0.0523,0.0084 0.0785,0.0128 -0.0262,-0.0045 -0.0524,-0.0088 -0.0785,-0.0128zm0.1462 0.0247c0.0258,0.0047 0.0517,0.0097 0.0776,0.0149 -0.0259,-0.0051 -0.0518,-0.0101 -0.0776,-0.0149zm0.1479 0.0296c0.0296,0.0064 0.0593,0.013 0.0888,0.02 -0.0295,-0.007 -0.0593,-0.0136 -0.0888,-0.02zm0.1448 0.0335c0.0326,0.008 0.0653,0.0165 0.098,0.0252 -0.0328,-0.0087 -0.0654,-0.0172 -0.098,-0.0252zm0.1487 0.039c0.0341,0.0094 0.0683,0.0194 0.1026,0.0296 -0.0342,-0.0103 -0.0685,-0.0202 -0.1026,-0.0296zm0.1477 0.0434c0.0339,0.0104 0.0681,0.0215 0.1021,0.0327 -0.034,-0.0113 -0.0681,-0.0222 -0.1021,-0.0327zm0.1526 0.0498c0.0339,0.0116 0.0679,0.0235 0.1019,0.0359 -0.034,-0.0124 -0.068,-0.0243 -0.1019,-0.0359zm0.1698 0.0612c0.028,0.0106 0.0562,0.0216 0.0843,0.0327 -0.0282,-0.0112 -0.0563,-0.022 -0.0843,-0.0327zm36.1267 -38.1485l0 32.065c-5.0837,-0.9292 -8.8208,-6.8913 -14.4313,-5.6907 -4.1373,1.1985 -7.8812,6.9757 -12.4033,5.4574 -3.3363,-1.3206 -5.8466,-4.2311 -9.2738,-5.3086 0.0246,0.0077 0.049,0.0154 0.0735,0.0233l0 -2.0513 1.8423 -0.2072 0 0.8352 2.3285 0 0 -1.0972 4.0313 -0.4535 0 0.6123 2.3285 0 0 -0.8743 4.2226 -0.4751 0 -4.8367 -4.2226 0 0 -0.9383 -2.3285 0 0 0.9383 -4.0313 0 0 -0.9383 -2.3285 0 0 0.9383 -1.827 0 0 -1.6939 0.3451 -0.1543 0.197 -0.0969 0.1926 -0.1037 0.1886 -0.1104 0.184 -0.1169 0.1795 -0.1232 0.1748 -0.1294 0.1701 -0.1357 0.1646 -0.1412 0.1597 -0.1471 0.1543 -0.1527 0.1488 -0.1583 0.143 -0.1632 0.1372 -0.1684 0.1313 -0.1734 0.1253 -0.1784 0.1186 -0.1826 0.1123 -0.1873 0.1056 -0.1914 0.099 -0.1959 0.0917 -0.1996 0.0849 -0.2035 0.0774 -0.2071 0.0702 -0.2109 0.0624 -0.2141 0.0545 -0.217 0.0466 -0.22 0.0386 -0.2231 0.0302 -0.2254 0.0218 -0.2281 0.0133 -0.2303 0.0045 -0.2339 -0.0079 -0.3082 -0.0234 -0.3058 -0.0386 -0.3016 -0.0532 -0.2969 -0.0678 -0.2918 -0.0816 -0.2864 -0.0952 -0.2803 -0.1083 -0.2742 -0.1214 -0.2674 -0.1335 -0.2603 -0.1456 -0.2526 -0.1573 -0.2451 -0.1686 -0.2365 -0.1792 -0.2279 -0.1897 -0.2191 -0.1999 -0.2099 -0.2099 -0.1999 -0.2191 -0.1897 -0.228 -0.1792 -0.2365 -0.1686 -0.2451 -0.1573 -0.2525 -0.1456 -0.2603 -0.1336 -0.2674 -0.1213 -0.2742 -0.1083 -0.2803 -0.0952 -0.2864 -0.0816 -0.2918 -0.0678 -0.2969 -0.0532 -0.3014 -0.0386 -0.3059 -0.0234 -0.3097 -0.008 -0.3096 0.008 -0.3058 0.0234 -0.3016 0.0386 -0.2969 0.0532 -0.2918 0.0678 -0.2864 0.0816 -0.2803 0.0952 -0.2742 0.1083 -0.2674 0.1213 -0.2603 0.1336 -0.2525 0.1456 -0.2451 0.1573 -0.2365 0.1686 -0.228 0.1792 -0.2191 0.1897 -0.2099 0.1999 -0.1999 0.2099 -0.1897 0.2191 -0.1792 0.2279 -0.1686 0.2365 -0.1573 0.2451 -0.1456 0.2526 -0.1335 0.2603 -0.1214 0.2674 -0.1083 0.2742 -0.0952 0.2803 -0.0816 0.2864 -0.0678 0.2918 -0.0532 0.2969 -0.0386 0.3016 -0.0234 0.3058 -0.0079 0.3082 0.0045 0.2339 0.0133 0.2303 0.0218 0.2281 0.0302 0.2254 0.0386 0.2231 0.0466 0.22 0.0545 0.217 0.0624 0.2141 0.0702 0.2109 0.0774 0.2071 0.0849 0.2035 0.0917 0.1996 0.099 0.1959 0.1056 0.1914 0.1123 0.1873 0.1186 0.1826 0.1253 0.1784 0.1313 0.1734 0.1372 0.1684 0.143 0.1632 0.1488 0.1583 0.1543 0.1527 0.1597 0.1471 0.1646 0.1412 0.1701 0.1357 0.1748 0.1294 0.1795 0.1232 0.184 0.1169 0.1886 0.1104 0.1926 0.1037 0.197 0.0969 0.3604 0.1611 0 1.6871 -1.8423 0 0 -0.9383 -2.3285 0 0 0.9383 -4.0313 0 0 -0.9383 -2.3285 0 0 0.9383 -4.2226 0 0 4.8367 4.2226 0.4751 0 0.8743 2.3285 0 0 -0.6123 4.0313 0.4535 0 1.0972 2.3285 0 0 -0.8352 1.8423 0.2072 0 2.2958c0.0319,-0.013 0.0639,-0.0256 0.0958,-0.0382 -4.3871,1.7275 -7.9913,7.055 -12.5792,4.7765 -2.4724,-1.228 -4.4473,-3.2764 -6.926,-4.5058 -6.5044,-3.2262 -10.7252,4.4416 -16.6255,5.1113l0 -32.1347 76.4574 0zm-36.2084 26.4923c-0.0305,-0.0093 -0.0613,-0.0185 -0.0919,-0.0274 0.0306,0.0089 0.0614,0.0182 0.0919,0.0274zm-0.1402 -0.0415c-0.0474,-0.0135 -0.0949,-0.0266 -0.1426,-0.0393 0.0477,0.0127 0.0952,0.0258 0.1426,0.0393zm-0.1744 -0.0478c-0.0532,-0.0141 -0.1066,-0.0278 -0.1602,-0.041 0.0536,0.0131 0.107,0.0269 0.1602,0.041zm-0.1777 -0.0452c-0.0559,-0.0137 -0.1122,-0.0266 -0.1687,-0.0392 0.0566,0.0126 0.1127,0.0255 0.1687,0.0392zm-0.1832 -0.0424c-0.0576,-0.0128 -0.1155,-0.025 -0.1737,-0.0367 -0.0925,-0.0115 -0.1844,-0.0206 -0.2761,-0.0276 0.0916,0.007 0.1836,0.0161 0.2761,0.0276 0.0581,0.0117 0.1161,0.0239 0.1737,0.0367zm-0.4575 -0.0648c-0.0885,-0.0067 -0.1768,-0.0112 -0.2645,-0.0139 0.0878,0.0027 0.176,0.0072 0.2645,0.0139zm-0.287 -0.0146c-0.087,-0.0023 -0.1736,-0.0027 -0.2599,-0.0013 0.0863,-0.0015 0.1729,-0.001 0.2599,0.0013zm-0.264 -0.0012c-0.0866,0.0016 -0.173,0.0052 -0.2589,0.0105 0.0859,-0.0053 0.1723,-0.0089 0.2589,-0.0105zm-0.2864 0.0123c-0.0807,0.0053 -0.1611,0.0122 -0.2411,0.0207 0.0801,-0.0085 0.1604,-0.0154 0.2411,-0.0207zm-0.2701 0.0239c-0.077,0.0085 -0.1537,0.0184 -0.2302,0.0297 0.0765,-0.0113 0.1532,-0.0212 0.2302,-0.0297zm-0.2732 0.0361c-0.0732,0.0113 -0.1459,0.024 -0.2185,0.0377 -0.017,0.0032 -0.0341,0.0065 -0.051,0.0098 -0.0685,0.0136 -0.1369,0.0281 -0.2049,0.0437 0.0681,-0.0155 0.1364,-0.0301 0.2049,-0.0437m-0.288 0.0636c-0.0542,0.0131 -0.1082,0.0269 -0.1622,0.0412 0.054,-0.0144 0.108,-0.0281 0.1622,-0.0412zm-0.2621 0.0687c-0.0522,0.0147 -0.1043,0.0299 -0.1563,0.0458 0.052,-0.0159 0.1041,-0.0311 0.1563,-0.0458zm-0.264 0.0795c-0.0474,0.0152 -0.0945,0.0309 -0.1418,0.047 0.0473,-0.0161 0.0943,-0.0318 0.1418,-0.047zm-0.2746 0.0936c-0.0384,0.0138 -0.0768,0.0278 -0.115,0.0422 0.0382,-0.0144 0.0766,-0.0284 0.115,-0.0422zm-38.0463 52.964c7.7291,3.6953 26.7286,-1.2529 39.6631,-1.2405 0.0365,-0.0002 0.0735,-0.0001 0.1102,-0.0002 0.0367,0.0001 0.0737,0 0.1102,0.0002 12.9345,-0.0124 31.9345,4.9358 39.6635,1.2405 0,3.5244 0.6377,7.1831 1.7119,10.1705 -11.829,4.7205 -26.7338,-0.8651 -41.4856,-1.0997 -14.7517,0.2346 -29.6562,5.8202 -41.4852,1.0997 1.0743,-2.9874 1.7119,-6.6461 1.7119,-10.1705zm97.7225 -23.7282c0.4242,8.9726 -6.2597,15.8204 -17.4221,20.8294 -2.779,-3.5269 -9.7109,-2.7771 -13.5969,-4.3189 -1.4363,-1.1896 -1.142,-3.151 8.343,-5.857 8.5272,-3.396 14.5425,-7.7647 13.6122,-14.8216 3.0213,1.3894 6.0425,2.7788 9.0638,4.1681zm-4.0322 -10.4364c-1.8965,2.4717 -1.9411,4.9434 -1.7213,7.4153 -0.7178,-0.3698 -2.3165,-1.0252 -3.2808,-1.4635 0.1833,-1.0075 -1.1034,-2.0274 -1.6863,-0.6513 -1.3362,4.2275 -2.8847,5.1276 -3.6136,4.9722 -3.4624,-1.8612 -2.2851,-7.492 1.0009,-14.8362 2.2587,-4.5239 3.5444,-5.0507 4.4262,-4.7762 0.4369,0.3927 0.3293,2.1109 0.1012,3.4341 -0.7641,-0.4386 -1.3287,-0.8274 -1.6938,-1.5154 -0.7932,1.1994 -0.9296,2.6399 -0.26,3.573 2.2591,1.291 4.4684,2.557 6.7275,3.848zm5.1391 -2.8463c0.5573,1.9554 0.2734,3.452 -0.8515,4.4899 -3.4664,-1.8674 -6.9328,-3.7349 -10.3992,-5.6024 1.6056,-0.4014 2.1791,-2.0261 1.9497,-4.8742 3.0621,1.9956 6.2389,3.9911 9.301,5.9867zm-117.005 13.2827c-0.4241,8.9726 6.2598,15.8204 17.4221,20.8294 2.7791,-3.5269 9.7109,-2.7771 13.5969,-4.3189 1.4363,-1.1896 1.142,-3.151 -8.3429,-5.857 -8.5273,-3.396 -14.5426,-7.7647 -13.6122,-14.8216 -3.0213,1.3894 -6.0426,2.7788 -9.0639,4.1681zm4.0323 -10.4364c1.8965,2.4717 1.941,4.9434 1.7212,7.4153 0.7179,-0.3698 2.3165,-1.0252 3.2808,-1.4635 -0.1832,-1.0075 1.1035,-2.0274 1.6864,-0.6513 1.3361,4.2275 2.8847,5.1276 3.6135,4.9722 3.4624,-1.8612 2.2851,-7.492 -1.0009,-14.8362 -2.2587,-4.5239 -3.5444,-5.0507 -4.4262,-4.7762 -0.4368,0.3927 -0.3293,2.1109 -0.1011,3.4341 0.7641,-0.4386 1.3286,-0.8274 1.6937,-1.5154 0.7933,1.1994 0.9297,2.6399 0.26,3.573 -2.2591,1.291 -4.4684,2.557 -6.7274,3.848zm-5.1392 -2.8463c-0.5572,1.9554 -0.2733,3.452 0.8516,4.4899 3.4664,-1.8674 6.9327,-3.7349 10.3991,-5.6024 -1.6056,-0.4014 -2.179,-2.0261 -1.9496,-4.8742 -3.0621,1.9956 -6.239,3.9911 -9.3011,5.9867z"
     style="font-size:12.000;fill:#280773;stroke:none;stroke-width:0.070600;fill-opacity:1.0000;" />
  <polygon
     id="_123059696"
     class="fil1"
     points="26.1252,17.9829 38.8194,28.1481 45.0116,12.7824 45.5069,12.9103 39.0308,28.9757 25.5254,18.3205 "
     style="font-size:12.000;fill:#000000;stroke:none;stroke-width:0.070600;fill-opacity:1.0000;" />
  <polygon
     id="_123065848"
     class="fil1"
     points="93.4081,17.9829 81.0072,27.9034 74.5217,12.7824 74.0264,12.9103 80.7957,28.731 94.0079,18.3205 "
     style="font-size:12.000;fill:#000000;stroke:none;stroke-width:0.070600;fill-opacity:1.0000;" />
  <path
     id="_122972000"
     class="fil5"
     d="M106.042 125.629l-0.3271 2.4303 -2.4262 0.3639 0.3241 -2.4333 2.4292 -0.3609zm2.4764 2.4367l-0.3206 2.4356 -2.4344 0.3604 0.3276 -2.4333 2.4274 -0.3627zm0.0538 -0.4298l-2.4251 0.3597 0.3218 -2.432 2.4268 -0.3621 -0.3235 2.4344zm-3.2358 3.29l-2.425 0.3604 0.3212 -2.4344 2.4274 -0.3592 -0.3236 2.4332zm-92.9894 -5.2975l0.3224 2.4332 2.428 0.3604 -0.3224 -2.4338 -2.428 -0.3598zm-2.4776 2.4379l0.3224 2.4338 2.4279 0.3598 -0.3224 -2.4332 -2.4279 -0.3604zm-0.0561 -0.4293l2.4274 0.3604 -0.3224 -2.4338 -2.428 -0.3604 0.323 2.4338zm3.2352 3.2877l2.4279 0.3604 -0.323 -2.4338 -2.4274 -0.3604 0.3225 2.4338zm26.6632 19.9197l1.5326 -0.3539 0 -7.4855 -1.5326 0.354 0 7.4854zm5.9686 -1.0577l1.5577 -0.2185 0 -6.3114 2.7819 -0.3914 0 -1.1739 -7.1215 1.0005 0 1.1745 2.7819 -0.3913 0 6.3115zm7.8055 -3.8917l1.299 -3.2007 1.2785 3.1108 -2.5775 0.0899zm-2.9443 3.133l1.6973 -0.0596 0.7757 -1.8825 3.5201 -0.1232 0.7862 1.8287 1.7493 -0.0613 -3.3315 -7.3692 -1.865 0.0648 -3.3321 7.6023zm13.6398 -2.8433c0,0.2512 -0.0088,0.4696 -0.0263,0.6548 -0.0176,0.1845 -0.0649,0.3586 -0.142,0.5215 -0.0765,0.163 -0.2026,0.2956 -0.3773,0.3972 -0.1746,0.1016 -0.4053,0.1501 -0.6915,0.1454 -0.3078,-0.0058 -0.5502,-0.0607 -0.7283,-0.1653 -0.1788,-0.1045 -0.3078,-0.2394 -0.3879,-0.4047 -0.0806,-0.1659 -0.1314,-0.34 -0.1524,-0.5216 -0.021,-0.1822 -0.0315,-0.4024 -0.0315,-0.6612l-1.5723 -0.0274c0,0.3843 0.021,0.7272 0.063,1.0285 0.0421,0.3014 0.1536,0.5987 0.3353,0.8919 0.1816,0.2932 0.4754,0.5356 0.8808,0.7283 0.4053,0.1922 0.9432,0.2938 1.6143,0.3055 0.552,0.0099 1.0151,-0.0572 1.3889,-0.2009 0.3738,-0.1437 0.6618,-0.3364 0.8645,-0.5771 0.2032,-0.2412 0.3428,-0.5011 0.4193,-0.7791 0.0771,-0.2786 0.1157,-0.5677 0.1157,-0.8679l0 -5.2216 -1.5723 -0.0275 0 4.7812zm6.1023 0.1577l1.2902 -2.9974 1.2698 3.3116 -2.56 -0.3142zm-2.9238 2.671l1.6856 0.2067 0.7698 -1.7609 3.4968 0.4292 0.7803 1.9514 1.7376 0.2132 -3.3093 -7.8919 -1.8521 -0.2272 -3.3087 7.0795zm10.0132 1.5466l1.532 0.3533 0 -7.4854 -1.532 -0.3539 0 7.486z"
     style="font-size:12.000;fill:#ffffff;stroke:#000000;stroke-width:0.070600;" />
  <path
     id="_123559432"
     class="fil1"
     d="M64.926 25.643c9.8077,0.5928 19.1586,2.932 27.7432,6.7063l-0.2149 0.514c-8.5186,-3.7457 -17.7971,-6.0697 -27.5283,-6.6613l0 -0.559zm-10.0792 0.5683c-9.775,0.6139 -19.0891,2.9729 -27.6352,6.767l-0.2138 -0.511c8.6121,-3.8228 17.9987,-6.1988 27.849,-6.8144l0 0.5584z"
     style="font-size:12.000;fill:#000000;stroke:none;stroke-width:0.070600;fill-opacity:1.0000;" />
  <path
     id="_124381920"
     class="fil0"
     d="M53.8108 46.5947l0.0002 0.0001c0.5117,-0.0001 0.9305,0.4187 0.9304,0.9305l0 1.8313 3.7823 0 0 -3.7824 -1.8312 0c-0.5117,0 -0.9304,-0.4187 -0.9304,-0.9305l0.0001 -0.0002c-0.0001,-0.5116 0.4186,-0.9304 0.9304,-0.9304l1.8311 0 0 -1.6511c0.0002,-0.5118 0.4187,-0.9305 0.9305,-0.9305l0 0.0001c0.5119,-0.0002 0.9306,0.4187 0.9306,0.9305l0 1.651 1.8313 0c0.5118,0 0.9305,0.4187 0.9307,0.9305l-0.0002 0.0002c0.0001,0.5117 -0.4187,0.9305 -0.9304,0.9304l-1.8314 0 0 3.7823 3.7823 0 0 -1.8311c0,-0.5119 0.4188,-0.9307 0.9306,-0.9306l0 0.0001c0.5119,-0.0001 0.9306,0.4186 0.9305,0.9305l0 1.8311 1.6512 0c0.5118,0.0002 0.9305,0.4187 0.9305,0.9305l-0.0001 0c0.0002,0.5119 -0.4187,0.9306 -0.9305,0.9306l-1.651 0 0 1.8312c-0.0001,0.5118 -0.4187,0.9305 -0.9306,0.9305l0 0c-0.5119,0 -0.9306,-0.4187 -0.9306,-0.9304l0 -1.8313 -3.7822 0 0 3.7823 1.8312 0c0.5118,0 0.9306,0.4188 0.9305,0.9306l-0.0001 0c0.0001,0.5119 -0.4186,0.9306 -0.9304,0.9305l-1.8312 0 0 1.6512c0,0.5116 -0.4188,0.9304 -0.9307,0.9304l0 0c-0.5117,0 -0.9305,-0.4187 -0.9304,-0.9305l0 -1.651 -1.8312 0c-0.5118,-0.0001 -0.9305,-0.4187 -0.9305,-0.9306l0 0c0,-0.5119 0.4187,-0.9306 0.9305,-0.9306l1.8312 0 0 -3.7822 -3.7824 0 0 1.8313c0,0.5116 -0.4187,0.9303 -0.9305,0.9303l-0.0002 -0.0001c-0.5116,0.0001 -0.9304,-0.4186 -0.9304,-0.9304l0 -1.8311 -1.6511 0c-0.5115,0 -0.9304,-0.4188 -0.9304,-0.9307l0 0c0,-0.5117 0.4187,-0.9305 0.9305,-0.9304l1.651 0 0 -1.8312c0,-0.5119 0.4187,-0.9306 0.9305,-0.9307zm48.6413 -21.8325l-0.0122 -0.0064 -0.1213 -0.0559 -0.1224 -0.05 -0.1252 -0.0434 -0.1241 -0.0358 -0.126 -0.0308 -0.1267 -0.0234 -0.1279 -0.0167 -0.1276 -0.0109 -0.1291 -0.005 -0.1288 0.0019 -0.1279 0.0067 -0.1278 0.0142 -0.1278 0.0202 -0.1278 0.0264 -0.1245 0.0312 -0.1225 0.038 -0.122 0.0436 -0.1206 0.0493 -0.1159 0.0549 -0.1133 0.0601 -0.1103 0.0659 -0.1081 0.0716 -0.1036 0.0758 -0.0989 0.0805 -0.0971 0.0863 -0.092 0.0915 -0.0872 0.0949 -0.084 0.1023 -0.0793 0.1061 -0.0747 0.1115 -0.0861 0.1452 -3.8895 6.9226 2.3043 1.2949 5.1079 -9.3173zm-42.5842 -10.4603l0.1366 0.0034 0.1332 0.0106 0.1317 0.0163 0.1297 0.0237 0.1259 0.0295 0.1245 0.0348 0.1226 0.0419 0.1193 0.0477 0.1169 0.053 0.115 0.0591 0.1113 0.0645 0.108 0.0687 0.1047 0.0747 0.1018 0.0803 0.0985 0.0857 0.0928 0.0882 0.0885 0.093 0.085 0.098 0.0805 0.1019 0.0745 0.1048 0.0692 0.1076 0.064 0.1117 0.0592 0.1151 0.0532 0.1171 0.0471 0.1187 0.0419 0.1228 0.0356 0.1247 0.0294 0.1256 0.0231 0.13 0.0172 0.1316 0.0101 0.1337 0.0045 0.1686 0 7.9408 -5.3112 0 0.0001 -7.9408 0.0044 -0.1691 0.0103 -0.1331 0.0169 -0.1317 0.0231 -0.1301 0.0294 -0.1255 0.0356 -0.125 0.0417 -0.1222 0.0469 -0.1192 0.0532 -0.1171 0.0595 -0.1155 0.0643 -0.1106 0.0692 -0.1081 0.0747 -0.1047 0.0798 -0.1019 0.0856 -0.0985 0.0881 -0.0925 0.093 -0.0886 0.0983 -0.0852 0.1018 -0.0805 0.105 -0.0743 0.1075 -0.0696 0.1114 -0.0639 0.1154 -0.0591 0.117 -0.054 0.1187 -0.0462 0.1227 -0.0421 0.1245 -0.0353 0.1264 -0.0293 0.1292 -0.0233 0.1319 -0.0172 0.1338 -0.0101 0.1363 -0.0035zm-42.5335 10.5132l0.0123 -0.0062 0.1225 -0.0531 0.1236 -0.0473 0.1261 -0.0405 0.1249 -0.0331 0.1266 -0.0279 0.1272 -0.0205 0.1282 -0.0138 0.1279 -0.0081 0.1291 -0.0021 0.1288 0.0048 0.1277 0.0096 0.1274 0.017 0.1274 0.0231 0.1271 0.0292 0.1237 0.034 0.1217 0.0408 0.121 0.0464 0.1194 0.0519 0.1148 0.0575 0.1119 0.0627 0.1087 0.0683 0.1065 0.074 0.1019 0.0782 0.097 0.0826 0.0951 0.0885 0.0899 0.0935 0.0851 0.0968 0.0817 0.1042 0.0768 0.1078 0.0722 0.1132 0.0828 0.1471 3.733 7.0083 -2.3328 1.2428 -4.8972 -9.4297z"
     style="font-size:12.000;fill:#d9261c;stroke:none;stroke-width:0.070600;fill-opacity:1.0000;" />
  <path
     style="font-size:12.000;stroke-width:0.049400;"
     d="M 78.49434 46.16300 L 78.72835 46.23664 L 78.94007 46.35313 L 79.12427 46.50661 L 79.27649 46.69281 L 79.39171 46.90651 L 79.46481 47.14313 L 79.48843 47.37839 L 79.48843 48.85469 L 82.49421 48.85469 L 82.49421 45.81878 L 81.03255 45.81878 L 80.79966 45.79487 L 80.56543 45.72109 L 80.35393 45.60475 L 80.16951 45.45100 L 80.01762 45.26503 L 79.90229 45.05124 L 79.82930 44.81483 L 79.79721 44.49806 L 79.81348 44.46480 L 79.82941 44.30917 L 79.90240 44.07277 L 80.01762 43.85918 L 80.16951 43.67299 L 80.35404 43.51938 L 80.56543 43.40290 L 80.79977 43.32924 L 81.03255 43.30510 L 82.49421 43.30510 L 82.49421 42.00579 L 82.51828 41.77064 L 82.59127 41.53427 L 82.70649 41.32066 L 82.85849 41.13447 L 83.04291 40.98084 L 83.25441 40.86440 L 83.48864 40.79062 L 83.73869 40.76479 L 83.98897 40.79062 L 84.22320 40.86440 L 84.43470 40.98084 L 84.61890 41.13447 L 84.77112 41.32066 L 84.88645 41.53427 L 84.95933 41.77077 L 84.98317 42.00602 L 84.98317 43.30510 L 86.44517 43.30510 L 86.67795 43.32924 L 86.91230 43.40290 L 87.12368 43.51938 L 87.30799 43.67299 L 87.46010 43.85906 L 87.57543 44.07268 L 87.64864 44.30917 L 87.68731 44.68862 L 87.65834 44.71768 L 87.64853 44.81495 L 87.57543 45.05134 L 87.46021 45.26503 L 87.30822 45.45100 L 87.12379 45.60484 L 86.91230 45.72118 L 86.67795 45.79497 L 86.44506 45.81878 L 84.98317 45.81878 L 84.98317 48.85456 L 87.98929 48.85456 L 87.98929 47.37839 L 88.01292 47.14313 L 88.08579 46.90651 L 88.20113 46.69281 L 88.35345 46.50661 L 88.53754 46.35313 L 88.74926 46.23664 L 88.98316 46.16300 L 89.35924 46.12413 L 89.38777 46.15309 L 89.48394 46.16309 L 89.71806 46.23678 L 89.92956 46.35321 L 90.11398 46.50675 L 90.26597 46.69293 L 90.38119 46.90651 L 90.45418 47.14300 L 90.47803 47.37817 L 90.47803 48.85456 L 91.76474 48.85456 L 91.99764 48.87871 L 92.23164 48.95249 L 92.44325 49.06893 L 92.62756 49.22234 L 92.77978 49.40865 L 92.89500 49.62224 L 92.96788 49.85863 L 92.99362 50.11129 L 92.96788 50.36421 L 92.89500 50.60057 L 92.77978 50.81450 L 92.62756 51.00047 L 92.44325 51.15409 L 92.23164 51.27056 L 91.99730 51.34434 L 91.76441 51.36814 L 90.47825 51.36814 L 90.47825 52.84453 L 90.45418 53.08001 L 90.38119 53.31628 L 90.26597 53.53011 L 90.11398 53.71606 L 89.92956 53.86980 L 89.71795 53.98616 L 89.48372 54.05994 L 89.25082 54.08386 L 89.21650 54.08386 L 88.98327 54.05994 L 88.74926 53.98616 L 88.53732 53.86980 L 88.35334 53.71606 L 88.20113 53.53021 L 88.08579 53.31628 L 88.01292 53.07992 L 87.98929 52.84441 L 87.98929 51.36814 L 84.98329 51.36814 L 84.98329 54.40390 L 86.44517 54.40390 L 86.67795 54.42807 L 86.91241 54.50171 L 87.12379 54.61817 L 87.30822 54.77179 L 87.46021 54.95799 L 87.57543 55.17157 L 87.64853 55.40807 L 87.68698 55.78753 L 87.65811 55.81650 L 87.64842 55.91363 L 87.57543 56.15004 L 87.46010 56.36383 L 87.30799 56.54981 L 87.12368 56.70357 L 86.91218 56.81990 L 86.67795 56.89368 L 86.44484 56.91748 L 84.98329 56.91748 L 84.98329 58.21691 L 84.95955 58.45227 L 84.88656 58.68866 L 84.77112 58.90247 L 84.61890 59.08835 L 84.43470 59.24206 L 84.22298 59.35839 L 83.98875 59.43231 L 83.73869 59.45791 L 83.48864 59.43231 L 83.25452 59.35839 L 83.04291 59.24206 L 82.85849 59.08844 L 82.70649 58.90238 L 82.59127 58.68866 L 82.51828 58.45227 L 82.49433 58.21678 L 82.49433 56.91758 L 81.03278 56.91758 L 80.79988 56.89368 L 80.56565 56.81990 L 80.35393 56.70357 L 80.16951 56.54972 L 80.01762 56.36396 L 79.90229 56.15004 L 79.82930 55.91363 L 79.80546 55.67828 L 79.80546 55.64322 L 79.82930 55.40807 L 79.90229 55.17157 L 80.01762 54.95799 L 80.16951 54.77179 L 80.35393 54.61817 L 80.56543 54.50171 L 80.79966 54.42807 L 81.03255 54.40390 L 82.49433 54.40390 L 82.49433 51.36824 L 79.48843 51.36824 L 79.48843 52.84453 L 79.46481 53.07992 L 79.39160 53.31640 L 79.27649 53.53034 L 79.12427 53.71619 L 78.94018 53.86980 L 78.72835 53.98616 L 78.49412 54.05994 L 78.18043 54.09203 L 78.14801 54.07565 L 77.99390 54.05994 L 77.75966 53.98616 L 77.54805 53.86980 L 77.36374 53.71619 L 77.21164 53.53021 L 77.09631 53.31628 L 77.02332 53.07992 L 76.99947 52.84453 L 76.99947 51.36824 L 75.71332 51.36824 L 75.48020 51.34444 L 75.24608 51.27056 L 75.03436 51.15422 L 74.85027 51.00047 L 74.69816 50.81450 L 74.58283 50.60057 L 74.50973 50.36421 L 74.48410 50.11129 L 74.50973 49.85863 L 74.58283 49.62224 L 74.69816 49.40865 L 74.85027 49.22234 L 75.03458 49.06893 L 75.24608 48.95249 L 75.48020 48.87871 L 75.71309 48.85469 L 76.99947 48.85469 L 76.99947 47.37817 L 77.02332 47.14300 L 77.09631 46.90651 L 77.21164 46.69293 L 77.36374 46.50675 L 77.54805 46.35321 L 77.75955 46.23664 L 77.99367 46.16286 L 78.36931 46.12377 L 78.39817 46.15298 L 78.49434 46.16300 L 78.49434 46.16300 z "
     id="path634"
     transform="translate(-24.34832,8.338489e-2)" />
  <path
     id="_123288784"
     class="fil7"
     d="M 78.23214 46.50845 L 78.23225 46.50856 C 78.73158 46.50856 79.14020 46.91719 79.14020 47.41652 L 79.14020 49.20345 L 82.83074 49.20345 L 82.83074 45.51269 L 81.04392 45.51269 C 80.54470 45.51269 80.13608 45.10418 80.13608 44.60474 L 80.13619 44.60462 C 80.13608 44.10541 80.54470 43.69678 81.04414 43.69678 L 82.83074 43.69678 L 82.83074 42.08569 C 82.83096 41.58625 83.23936 41.17774 83.73869 41.17774 L 83.73869 41.17785 C 84.23825 41.17763 84.64676 41.58636 84.64676 42.08580 L 84.64676 43.69678 L 86.43358 43.69678 C 86.93302 43.69678 87.34153 44.10530 87.34176 44.60474 L 87.34153 44.60485 C 87.34165 45.10418 86.93302 45.51280 86.43369 45.51269 L 84.64676 45.51269 L 84.64676 49.20334 L 88.33741 49.20334 L 88.33741 47.41663 C 88.33741 46.91719 88.74603 46.50856 89.24536 46.50856 L 89.24547 46.50867 C 89.74480 46.50856 90.15343 46.91719 90.15331 47.41663 L 90.15331 49.20334 L 91.76452 49.20334 C 92.26396 49.20356 92.67247 49.61185 92.67247 50.11129 L 92.67236 50.11129 C 92.67258 50.61084 92.26385 51.01936 91.76441 51.01936 L 90.15343 51.01936 L 90.15343 52.80607 C 90.15331 53.30551 89.74480 53.71413 89.24547 53.71413 L 89.24536 53.71413 C 88.74592 53.71413 88.33741 53.30551 88.33741 52.80618 L 88.33741 51.01936 L 84.64687 51.01936 L 84.64687 54.71000 L 86.43358 54.71000 C 86.93302 54.71000 87.34165 55.11863 87.34153 55.61796 L 87.34153 55.61796 C 87.34153 56.11740 86.93302 56.52591 86.43358 56.52591 L 84.64687 56.52591 L 84.64687 58.13711 C 84.64687 58.63622 84.23814 59.04496 83.73869 59.04496 L 83.73869 59.04496 C 83.23936 59.04496 82.83074 58.63644 82.83085 58.13700 L 82.83085 56.52591 L 81.04414 56.52591 C 80.54470 56.52591 80.13608 56.11740 80.13608 55.61796 L 80.13608 55.61796 C 80.13608 55.11852 80.54470 54.71000 81.04403 54.71000 L 82.83085 54.71000 L 82.83085 51.01947 L 79.14020 51.01947 L 79.14020 52.80629 C 79.14020 53.30551 78.73158 53.71413 78.23225 53.71413 L 78.23203 53.71402 C 77.73281 53.71413 77.32419 53.30551 77.32419 52.80607 L 77.32419 51.01947 L 75.71309 51.01947 C 75.21399 51.01947 74.80525 50.61073 74.80525 50.11129 L 74.80525 50.11129 C 74.80525 49.61196 75.21376 49.20334 75.71320 49.20345 L 77.32419 49.20345 L 77.32419 47.41663 C 77.32419 46.91719 77.73270 46.50856 78.23214 46.50845 L 78.23214 46.50845 z "
     style="font-size:12.000;fill:#d9261c;stroke-width:0.049400;fill-opacity:1.0000;"
     transform="translate(-24.34832,8.338489e-2)" />
</svg>
